<svg width="65" height="66" viewBox="0 0 65 66" fill="none" xmlns="http://www.w3.org/2000/svg">
<path d="M53.5864 39.82H53.172C52.7625 39.82 52.3858 39.4899 52.3268 39.0814C51.8976 36.0366 50.4103 25.4718 50.4103 25.4718L50.2039 24.0011L48.0908 8.99414C48.0548 8.74069 47.7665 8.5356 47.4471 8.5356H47.1932C46.8738 8.5356 46.6412 8.74069 46.6723 8.99248L48.5184 23.3891C48.5593 23.7126 48.3005 23.9744 47.9369 23.9744C44.8868 23.9744 32.2543 23.9744 32.2543 23.9744H16.367C16.0034 23.9744 15.7429 23.7109 15.7839 23.3891L17.6299 8.99248C17.6627 8.73903 17.4301 8.5356 17.109 8.5356H16.8551C16.5341 8.5356 16.2474 8.73903 16.2114 8.99248C15.869 11.4286 14.0983 23.9994 14.0983 23.9994L13.8919 25.4701L11.9754 39.0764C11.9181 39.4849 11.5397 39.8167 11.1318 39.8167H10.7174C10.3095 39.8167 9.92624 40.1485 9.864 40.5621C9.60846 42.2245 8.90575 46.7899 8.16699 51.5955C9.7264 53.6514 11.5332 55.5023 13.543 57.1014C14.2769 50.7367 15.1843 42.8648 15.4497 40.5621C15.4972 40.1485 15.204 39.8167 14.7961 39.8167H14.4095C14.0017 39.8167 13.7117 39.4866 13.7642 39.0797C14.0967 36.4852 15.145 28.3064 15.43 26.0854C15.4726 25.7502 15.8035 25.4818 16.1721 25.4818C24.4392 25.4818 39.8695 25.4818 48.1351 25.4818C48.5036 25.4818 48.8345 25.7519 48.8771 26.087L50.543 39.078C50.5954 39.4849 50.3071 39.8184 49.8976 39.8184H49.5094C49.1015 39.8184 48.8083 40.1502 48.8558 40.5637C49.1212 42.8664 50.0286 50.7384 50.7625 57.103C52.7723 55.5039 54.5807 53.6531 56.1385 51.5971C55.3998 46.7916 54.697 42.2262 54.4415 40.5637C54.3776 40.1502 53.996 39.8184 53.5864 39.8184V39.82Z" fill="white"/>
<path d="M32.1511 63.6277C25.1403 63.6277 18.6799 61.1899 13.5414 57.1047C13.4661 57.7633 13.3907 58.4053 13.3203 59.0222C18.6029 62.964 25.1141 65.2951 32.1511 65.2951C39.1881 65.2951 45.6993 62.964 50.982 59.0222C50.9116 58.4036 50.8362 57.7616 50.7609 57.1047C45.6223 61.1899 39.1603 63.6277 32.1511 63.6277Z" fill="white"/>
<path d="M1.86222 32.7951C1.86222 15.794 15.4497 1.96257 32.1511 1.96257C48.8525 1.96257 62.4401 15.794 62.4401 32.7951C62.4401 39.8684 60.0862 46.3914 56.1385 51.5988C56.2516 52.3358 56.3662 53.0778 56.4792 53.8165C61.2164 48.1456 64.0781 40.8038 64.0781 32.7951C64.0797 14.8752 49.7567 0.295135 32.1511 0.295135C14.5455 0.295135 0.224182 14.8752 0.224182 32.7951C0.224182 40.8055 3.08747 48.1456 7.82303 53.8165C7.93605 53.0778 8.05072 52.3358 8.16374 51.5988C4.21444 46.3914 1.86222 39.8684 1.86222 32.7951Z" fill="white"/>
<path d="M56.4792 53.8165C56.3662 53.0778 56.2515 52.3358 56.1385 51.5988C54.5791 53.6548 52.7724 55.5056 50.7625 57.1047C50.8378 57.7633 50.9115 58.4053 50.9836 59.0222C53.0099 57.5099 54.8559 55.7624 56.4809 53.8165H56.4792Z" fill="white"/>
<path d="M8.16374 51.5988C8.05072 52.3358 7.93605 53.0778 7.82303 53.8165C9.44796 55.7624 11.294 57.5115 13.3203 59.0222C13.3907 58.4036 13.4661 57.7617 13.5414 57.1047C11.5315 55.5056 9.72315 53.6548 8.16538 51.5988H8.16374Z" fill="white"/>
<path d="M43.6415 16.5254C43.9889 15.7819 42.9752 14.552 41.3772 13.7782C39.7793 13.0044 38.2023 12.9798 37.8549 13.7233C37.5074 14.4668 38.5212 15.6967 40.1191 16.4705C41.7171 17.2442 43.2941 17.2688 43.6415 16.5254Z" fill="white"/>
</svg>
