<?xml version="1.0" encoding="UTF-8"?>
<svg id="Layer_2" data-name="Layer 2" xmlns="http://www.w3.org/2000/svg" xmlns:xlink="http://www.w3.org/1999/xlink" viewBox="0 0 408.89 457.44">
  <defs>
    <style>
      .cls-1 {
        fill: #231f20;
      }

      .cls-2 {
        fill: #fff;
      }

      .cls-3 {
        mask: url(#mask);
      }

      .cls-4 {
        fill: #f05025;
      }
    </style>
    <mask id="mask" x="27.65" y="311.69" width="341.55" height="100.46" maskUnits="userSpaceOnUse">
      <g id="mask0_21_99" data-name="mask0 21 99">
        <path class="cls-2" d="M27.65,311.69v100.46h341.55v-100.46H27.65ZM29.22,386.77c.3-3,2.38-6.28,6.18-9.84l5.43,22.02c-7.76-1.76-11.87-6.09-11.61-12.18ZM225.94,394.03c-2.13,3.17-3.27,5.79-3.5,7.98.08.48.2.67.25.7l.13.63h-9.74v3l-1.05-.6c-.7-1.22-1.06-2.51-1.08-3.86-.03-3.01,1.31-5.66,2.69-8.01h12.31v.17-.02ZM234.51,383.64c-.95.98-1.85,1.92-2.67,2.82h-12.67l.08-.51c3.1-3.62,6.65-6.84,9.73-9.42h5.54v7.11Z"/>
      </g>
    </mask>
  </defs>
  <g id="Layer_1-2" data-name="Layer 1">
    <g>
      <polygon class="cls-2" points="204.65 209.7 205.52 209.92 204.65 210.14 204.65 209.7"/>
      <path class="cls-2" d="M230.44,44.13c2.34-.31,5.83.27,8.04,1.07,7.06,2.57,17.2,11.45,16.6,18.91-.28,3.43-3.77,5.91-7.45,6-10.52.24-24.1-11.78-22.24-21.54.47-2.45,2.4-4.08,5.06-4.44ZM250.41,61.05c-.16-.67-.42-1.52-.73-2.13-1.01-2.01-3.84-5.03-5.7-6.51-2.95-2.34-6.78-4.16-10.53-5.17,1.68,1.24,3.65,2.03,5.4,3.19,4.45,2.95,8.16,6.71,11.56,10.61Z"/>
      <path class="cls-2" d="M207.28,235.72l-3.46-.87-.43-7.37c5.22-.37,3.7,4.68,3.9,8.24Z"/>
      <path class="cls-2" d="M204.61,175.01l.65-.87.65.87.22-1.3,1.44.93.08.98c-.94.2-.74,1.34-1.16,1.58-.66.37-2.01-.1-2.21.05-.17.12-1.65,2.62-1.04.08.31-1.27,1.08-2.58.95-4.05l.43,1.73Z"/>
      <path class="cls-2" d="M206.89,177.21c.8.57.5,2.93-1.25,1.7v1.31s.86.43.86.43l-2.54-.06c-1.94-2.19,1.77-4.21,2.92-3.38Z"/>
      <path class="cls-2" d="M205.65,222.28c.28.14.28.29,0,.43v-.43Z"/>
      <path class="cls-2" d="M205.65,156.8c.28.14.28.29,0,.43v-.43Z"/>
      <g>
        <path class="cls-2" d="M163.65,228.44l4.66-.52c.07,3.12.09,6.24-.54,9.31l-4.12.03v-8.82Z"/>
        <path class="cls-2" d="M186.65,227.41v8.82h-5.19c1.1-2.59.22-5.52.58-8.24l4.61-.57Z"/>
        <path class="cls-2" d="M230.65,237.23h-5v-8.82c1.73-.06,3.69.09,5,1.3v7.52Z"/>
        <polygon class="cls-2" points="207.65 226.93 207.65 235.23 202.65 235.23 202.65 226.41 207.65 226.93"/>
        <path class="cls-2" d="M246.08,240.58l-4.14-1.04-.52-8.81c6.25-.45,4.43,5.6,4.66,9.85Z"/>
      </g>
      <path class="cls-2" d="M317.8,43.81c-61.17-58.19-161.75-58.21-223.57-1.27-59.48,54.78-72.45,144.54-29.4,213.69,43.27,69.51,133.73,98.07,209.07,63.11,108.73-50.44,130.75-192.91,43.89-275.53ZM154.54,287.7c-.19.03-.38.06-.57.09h-1.96v-.81c.44-.5,1.43-.84,2.61-1.07l-.08,1.79ZM243.5,309.16c-7.8.43-15.69-.32-23.42-.43-12.18-.18-24.38.29-36.47.45-2.33.03-16.3.35-17.02-.11-.21-.14.1-.83-.29-.76-.3,1.62-1.52.86-1.51-.43l.87.22v-5.16s-2.03,1.29-2.03,1.29c.19-.9-1.1-1.06-1.2-1.5-.06-.25.31-.52.33-.66-.55.24-1.34.11-1.73.87l1.3.45-.43,1.85h2.76v1.17c-2.18.05-3.97-.03-3.63,2.6l1.3.44-6.93.26v-4.12c.28.35.52.81.43,1.66h3.46c-.29-.81.51-.79,1.24-1.51l-.37-1.05,1.3.43c.41-1.37-.53-1.25-.86-1.73-.56-.8.04-1.35-.44-2.16l1.08.85,1.52-.86c0,.28.04.59,0,.87,1.04-.45,1.63-.12.87-1.73,1.3-.27,1.48,1.03,2.83,1.29l.21-2.16,1.3.43-.38-3.27c-1-1.26-2.38.05-2.92-.2v-2.16l3-.45v-5.88c-.84-.53-1.98,2.54-2.28.54l-.8.32c1.02-3.04-2.44-1.47-4.54-1.74l-1.19,1.74,1.76.87c-.71-.12-1.25.1-1.82.31l.21-4.54c.8-.05,1.42-.07,1.67-.11,26.18-3.4,56.06-3.78,82.39-1.29,3.41.32,12.58,1.11,15.12,2.66,3.04,1.86,1.77,7.42,2.02,10.55.35,4.4,1.21,8.8,1.3,13.23l-17.98-1.32ZM156.35,295.92c-.08-.13.25-.73.13-1.22-.11-.48-.68-.97-.7-1.5,0-.14,1.43-.67,1.77-1.59l1.09.05c-.33,1.06.9,1.59,1.92,2.16l.44-.86c-.11,1.49,2.64.39,2.4,2.6l-2.78.91-.08,3.39-3.87.9-.43-1.3c-.36.53-.04,2.42-.11,2.52-.09.13-.5.2-.75.37v-3.17c1.1.24,2.61-1.11,2.62-1.28.02-1.38-1.48-1.69-1.65-1.99ZM158.71,291.54l.02-.35.13.04c-.07.11-.1.21-.14.31ZM158.65,306.83v-.43c.28.14.28.29,0,.43ZM162.75,277.78l-1.69.39-.42-.82v.88h-.93l-.28-.91s-.05.01-.08.02l1.23-26.86.42-.23-.41.1.08-1.81c.27.1.57.18.96.21l.46-.89c1.97,1.22-1.43,3.88-1.51,4.2-.47,1.79,1.65,1.38.89,3.14.46.52,5.82-.48,6.3-1.27l-.3-3.43-3.23-.89-.14-2.14c2.49-.28,2.4-2.84,2.55-4.82l.7.88c3.23.66,1.39-2.67,3.42-4.35l.86,2.16c1.45-.16,2.56-3.51,1.24-3.85-.68-.17-4.43.23-5.35.39-.31,1.74-.99,4.43-3.03,3.47l.43,1.73c-1.46.11-2.72.07-3.95-.63l.14-3.04c.3-.52.46-1.11.35-1.96l1.09,1.73c1.3.22.13-.84.41-1.32.17-.29,1.03-.7,1.4-.77.34-.07,1.3-.08,1.3-.08v1.3s1.14-.31,1.87-.44c.6-3.41.03-7.12.87-10.4-.56-.43-2.55,1.39-2.17-.44l1.51-.88c-2.8.26-4.06.93-6.13,2.51l.48-10.5c.06-.2.09-.43.03-.67l.02-.47c.53.06,1.58.71,1.92.9.06-.13-.01-.39.22-.44l1.32.37.48-.65h1.45l-.86.93,1.73.66-.43-4.33,1.3-.43-2.16-1.96.86-1.07-1.25-.39-.48.81c-.05-.42.05-.88,0-1.3,0-.02-.4.07-.43-.22l.43-.22-.22-.87c-.61.9-1.1,1.85-2.39,1.73l.84-2.39-1.51-.6-.27-1.73h-.03s.1-2.16.1-2.16l2.9,1.25v-3.9l.55,1.43,1.59.48-.16,3.04-1.11-1.77-.67,1.78c-1.42-.83-1.57.35-2.66,1.32l2.41.9,14.04-2.23v-20.34c-.33-.43-.38-.49-.89-.48-2.08.02-6.01,2.08-7.98.74-.6-.41.29-1.7-1.12-1.34v2.6s-2.1-.04-2.74.39c-.6.41.29,1.69-1.12,1.34l-.44-1.95.87.22-.43-2.6,1.86.43v-2.56l1.98-.54c.76-3.18-1.05-2.68-2.91-4.12-.93-2.73,1.46-2.66,2.11-3.85.17-.32-.64-.04-.85-.54-.42-.96.42-2.86-1.31-2.71l.43,1.55h-.86l-1.75-2.63c1.01-1.03,1.42.67,1.53.67.44-.01,1.8-.94,2.81-1.15,1.2-.24,2.64.12,3.91-.17-1.44,1.76-.39,2.98,1.74,3.03l-.44-.86,2.79-.47,2.41-3.44c-2.87,0-5.07.4-7.8,1.3l.43-2.28h-3.25l.22.98-1.3-.65c0-.97,10.57-3.6,12.12-3.92,16.93-3.46,42.06-2.95,58.64,2.09,2.31.7,7.86,3.21,9.04,5.27.79,1.38.67,10.99.85,13.46,1.95,26.91,4.1,53.76,6.06,80.66.41,5.54.72,11.13.87,16.69-4.07-.75-8.23-1.35-12.36-1.73-25.47-2.36-53.02-1.86-78.48.47-.98.09-1.62-.39-2.2-.43-.22-.01.02.75-.81.86-.29.04-1.42.15-2.02-.06l.04-.84.43-.43c.74-.1,3.3.87,3.04-.87ZM160.86,244.8l.04-.88c.13.09.31.17.55.25l-.59.63ZM163.18,232.25l-.77-.32-.36.79-.63-.15.16-3.51c.46.74,1.88.53,3.07.16v3.47l-1.68-2.6.22,2.17ZM162.24,215.93s-.04,0-.06,0l.15-3.2c.53-.37.23-1.06.48-1.26.78-.63,2.48-.91,2.75.48.39,2-2.59,1.51-3.05,2.35-.04.07.62,1.64-.27,1.64ZM168.08,197.53l-.88-.88-.02,1.11.87.41-.02.39-2.22-.58.89-3.69-.91-.84,1.26-.18.6,1.7v-5.43c.77-.11.42,1.01.44,1.55.08,2.14-.06,4.31,0,6.45ZM173.6,204.8v-10.43h4.43v10.09l-4.43.34ZM166.22,141.82v-.67l1.51-.35.69,1.72c-4.9,1.43-.33,2.53,2.16,2.59l-.22-.86c1.94.69,2.13-1.05,2.43-1.22.24-.14,4.6.7,4.69-1.79-.47.32-2,.06-2.09.12-.07.05-.08,1.43-.93.74-.1-.08.48-2.09,1.09-2.15.68-.26.66,1.64,2.36.42l-1.3-.64,1.3-.64c-2.56-.06-4.27,1.45-6.88.44l-.67,1.72-2.8-1.51,5.97-2.88.12-7.8,6-1.25v7.33l10-1.74v-8.53l8-.43v7.81h11v-7.15c2.46-1.45,6.22-.42,9-.22v8.56l10,1.25v-7.46l6.18,1.32.19,7.97,8.63,3.5v-6.97c1.88,1.18,5.27,2.86,5.94,5.07l1.83,26.43c-1.92-1-3.28-2.64-5.3-3.54-13.85-6.14-39.41-7.35-54.46-5.95-7.41.69-14.7,2.2-21.8,4.31l2.16-.86-.21-.85-1.09-.43,6.05-1.3-.21-2.61c-.99-1.06-3.95-.26-5.1.45-.4.25-.08,1.02-.73.86l1.29-2.15-2.58.86c-.63-2.8,2.21-1.3,1.72-3.45-.56-.25-.46,1.81-1.29.86-.24-.28-.14-1.59.86-1.3l-.86-.43.86-.64-3.49-.72v-5.26l.47.16-.47-.71ZM167.46,153.41l-.17.81h1.32s.21.87.21.87c-1.74.56-1.92-1.18-2.59-1.23v-.61c.54-.02,1.05.01,1.24.17ZM166.65,154.88l-.43,1.95v-2.09l.43.15ZM167.09,157.46c-.14.5-.46.87-.87,1.11v-1.55l.87.45ZM285.96,205.47c-4.06-.41-6.11.24-6.53,4.54,1.08,25.64,3,51.21,4.36,76.82.25,4.6,1.02,9.29,1.34,13.9l-.48,1.29c-5.78,3.52-11.88,6.45-18,9.34-.86-5.41-1.62-10.89-2.34-16.33-.42-3.18.1-7.4-1.79-9.92-.69-.92-2.55-1.89-2.63-2.59-.51-19.85-2.92-39.66-4.3-59.47-.2-2.87.19-5.8,0-8.67-.82-12.11-2.64-24.84-3.05-36.87-.15-4.24,1.35-2.92,2.57-5.28,1.01-1.96.22-9.81.05-12.52-.46-7.18-1.41-14.4-1.83-21.6-.98-4.02-8.19-10.73-12.27-10.34-3.45.33-.49,4.83-3.24,5.24.48-6.72-.87-7.8-6.85-9.42-6.12-1.65-7.22-.7-7.47,5.95l-2.14-.45c.24-2.65-.14-7.42-3.37-8.13-1.09-.24-4.68-.48-5.99-.52-6.4-.2-7,1.56-6.72,7.81h-3.48c.17-1.94-.11-5.6-1.62-6.96-1.98-1.78-9.51-.12-12.25.24-2.05,2.02-2.31,4.82-2.24,7.53l-1.89.49c-.46.02.51-7.52-4.23-6.86-.72.1-8.09,2.39-8.45,2.64-1.66,1.18-2.12,5.77-1.87,7.68l-1.07-4.78c-4.85-1.89-11.46,6.86-11.95,11.07-.81,7.05-.56,14.62-.87,21.69-.21,4.75-2.61,10.28,1.95,13.68-1.7,35.74-4.96,71.57-6.73,107.38-.28,1.51-2.09,1.85-2.96,3.11-2.47,3.56-2.21,19.79-3.09,25.11-.08.51-.24.77-.66,1.07l-17.91-9.63c-.15-8.72,1.16-17.44,1.66-26.14.17-3.02-.2-6.1-.01-9.13,1.16-19.11,3.58-38.31,3.6-57.42-.87-3.36-3.17-3.63-6.24-3.74-.55-.38-.46-1.56-.43-2.2.43-12.56,2.23-25.2,3.06-37.75.91-13.72,1.63-27.48,2.6-41.22.44-6.26.74-12.61.87-18.87h148.84c.1,2.66-.14,5.36,0,8.02,1.59,29.63,4.14,59.32,6.09,88.94.07,1.08-.08,2.2-.02,3.28ZM314.59,278.41c-.44-5.55-.96-11.12-1.52-16.67-1.37-13.56-2.86-27.13-4.32-40.71-.34-3.13-.17-11.42-1.54-13.62-.2-.32-1.99-2.19-2.15-2.19h-6.71c-.69-9.18-1.83-18.34-2.59-27.5-2.78-33.47-5.15-67.01-8.24-100.46-.78-8.4-1.39-18.16-2.65-26.37-.47-3.09-1.2-7.48-5.3-7.07-1.96.19-3.6,2.61-3.72,4.47-.22,3.45,1.03,9.21,1.28,12.94.76,11.33,1.4,22.67,2.17,33.99h-147.68l3.45-46.93c-1.17-5.44-6.87-6.25-8.45-.29-1.36,5.14-1.84,14.91-2.36,20.59-3.14,34.17-5.55,68.47-8.67,102.63-1.03,11.33-2.62,22.65-3.46,34-3.84.13-8.21-1.26-8.98,3.8-2.58,23.27-4.16,46.57-6.83,69.82-12.53-13.17-23.68-27.78-31.47-44.31-30.28-64.21-12.63-142.57,41.44-187.8C172.96-9.02,273.72,1.45,326.94,69.89c37.38,48.08,44.63,115.34,16.4,169.71-7.46,14.37-17.52,27.23-28.74,38.82Z"/>
      <path class="cls-1" d="M100.43,333.44c1.66-1.13,3.61-2.28,5.32-3.52,8.73-6.39,3.74-9.07-3.33-7.77-9.96,1.4-44.67,14.14-41.45,22.88,2.19,2.35,5.82,2.08,8.88,2.24,4.33-.03,9.24-.24,13.75.21,6.38.51,11.23,2.52,16.52,3.24,5.91.87,12.61-.97,18.58-1.38,5.02-.32,6.15,1.41,3.71,2.62-5.51,2.38-13.26,1.1-17.94,5.39-2,1.78-2.97,4.41-4.05,6.9-6.38,15.87-30.52,32.05-49.9,34.03-7.76.57-20.16-1.6-19.74-11.25.56-5.74,9.67-12.47,15.42-15.98,9.03-5.62,18.46-9.53,28.42-12.74,4.18-1.54,11.72-2.73,11.11-4.7-.53-.59-1.38-.73-2.32-.97-4.79-.92-10.14-.63-15.08-.52-6.32.35-18.33-.49-17.77-8.38,4.49-13.04,31.64-22.31,49.46-26.02,10.32-2.54,28.95.35,14.12,13.26-3.97,3.51-10.87,8.47-15.55,8.03-4.21-.41-.88-3.89,1.6-5.39l.25-.17h-.02ZM93.48,358.86c-2.38-2.78-9.43.6-14.41,2.05-12.03,4.27-23.59,9.68-33.49,17.9-3.25,2.84-5.21,5.12-5.82,7.52-.94,5.38,5.3,7.81,10.64,7.54,13.08-.49,44.88-21.23,43.17-34.86l-.08-.13-.02-.02Z"/>
      <path class="cls-1" d="M256.55,348.44c1.35,2.44,1.7,6.89,4.6,6.93,2.85.33,8.41-3.03,11.97-3.38,1.1-.16,4.41-.56,3.6,1.25-1.52,2.05-4.55,3.27-6.9,4.46-7.76,3.76-13.95,5.41-16.36,13.69-2.17,7.2-6.05,16.01-11.06,22.5-6.01,7.73-12.83,13.95-21.02,14.75-4.61.22-8.81-3-8.84-7.11-.03-3,1.53-5.62,3.05-8.17,6.59-11.14,18.68-19.32,28.34-26.72,5.46-4.2,4.6-12.6,7.46-18.32,1.28-2.24,3.77-2.59,5.08-.08l.11.19h-.03ZM228.89,387.08c-3.41,4.27-7.9,9.92-8.32,14.94.45,4.14,4.55,1.97,7.57-.92,4.66-4.36,9.03-10.34,12.17-16.06,3.02-5.43,8.16-17.37-.52-8.98-3.57,3.25-7.32,6.84-10.64,10.68l-.27.32v.02ZM262.89,333.79c-.55,4.13-8.13,3.14-9.76.27-.8-1.49,1.27-3.79,4.35-3.95,2.24-.18,5.07,1.13,5.41,3.47v.21Z"/>
      <path class="cls-2" d="M0,376.44h12.27l4.41,26.31,6.47-26.31h12.22l6.48,26.28,4.43-26.28h12.21l-9.22,47h-12.66l-7.34-29.59-7.3,29.59h-12.66L0,376.44Z"/>
      <path class="cls-2" d="M88.05,415.44h-15.11l-2.1,8h-12.9l15.71-47h14.09l15.7,47h-13.23l-2.15-8h-.02ZM85.11,405.44l-4.57-16.72-4.52,16.72h9.09Z"/>
      <path class="cls-2" d="M106.89,376.44h12.49l15.51,25.99v-25.99h12v47h-12.53l-15.47-25.8v25.8h-12v-47Z"/>
      <path class="cls-2" d="M155.9,376.44h19.19c3.78,0,6.83.58,9.17,1.73,2.32,1.15,4.25,2.81,5.77,4.97,1.52,2.16,2.62,4.66,3.3,7.53s1.03,5.9,1.03,9.11c0,5.02-.51,8.91-1.53,11.69-1.03,2.77-2.43,5.08-4.24,6.96-1.8,1.88-3.75,3.11-5.82,3.73-2.83.85-5.39,1.28-7.7,1.28h-19.19v-46.98l.02-.02ZM167.89,387.45v24.98h3.08c2.63,0,4.49-.33,5.6-.98,1.11-.66,1.99-1.79,2.6-3.43.63-1.64.94-4.28.94-7.94,0-4.84-.71-8.16-2.11-9.96-1.4-1.79-3.74-2.68-6.98-2.68h-3.14l.02.02Z"/>
      <path class="cls-2" d="M199.89,376.44h34v10h-21v8h20v9h-20v9h22v11h-35v-47Z"/>
      <path class="cls-2" d="M241.89,423.45v-47.02h21.52c3.98,0,7.04.38,9.15,1.15,2.12.77,3.81,2.2,5.11,4.28,1.3,2.08,1.94,4.62,1.94,7.62,0,2.61-.49,4.86-1.49,6.75-1,1.89-2.36,3.43-4.08,4.6-1.11.75-2.61,1.36-4.54,1.86,1.53.58,2.66,1.15,3.37,1.73.47.38,1.17,1.2,2.07,2.47.9,1.27,1.5,2.23,1.8,2.92l6.26,13.61h-14.54l-6.88-14.31c-.87-1.85-1.65-3.05-2.33-3.61-.93-.72-1.98-1.09-3.15-1.09h-1.22v19h-12.98l-.02.02ZM254.92,395.44h5.12c.55,0,1.62-.2,3.22-.6.8-.18,1.46-.65,1.97-1.39.51-.74.76-1.6.76-2.57,0-1.43-.4-2.52-1.21-3.29-.8-.77-2.32-1.15-4.54-1.15h-5.34v9h.03Z"/>
      <path class="cls-2" d="M286.89,376.44h34v10h-21v8h20v9h-20v9h22v11h-35v-47Z"/>
      <path class="cls-2" d="M328.89,423.45v-47.02h21.52c3.98,0,7.04.38,9.15,1.15,2.12.77,3.81,2.2,5.11,4.28,1.3,2.08,1.94,4.62,1.94,7.62,0,2.61-.49,4.86-1.49,6.75-1,1.89-2.36,3.43-4.08,4.6-1.11.75-2.61,1.36-4.54,1.86,1.53.58,2.66,1.15,3.37,1.73.47.38,1.17,1.2,2.07,2.47.9,1.27,1.5,2.23,1.8,2.92l6.26,13.61h-14.9l-6.88-14.31c-.87-1.85-1.65-3.05-2.33-3.61-.93-.72-1.98-1.09-3.15-1.09h-.86v19h-12.98l-.02.02ZM341.91,395.44h5.12c.55,0,1.62-.2,3.22-.6.8-.18,1.46-.65,1.96-1.39.51-.74.76-1.6.76-2.57,0-1.43-.4-2.52-1.21-3.29-.8-.77-2.32-1.15-4.54-1.15h-5.34v9h.03Z"/>
      <path class="cls-2" d="M371.35,407.44l12.15-.86c.27,2.22.8,3.92,1.61,5.08,1.31,1.89,3.19,2.82,5.65,2.82,1.83,0,3.22-.48,4.22-1.44.99-.97,1.49-2.08,1.49-3.35s-.47-2.28-1.41-3.24c-.94-.95-3.11-1.86-6.54-2.7-5.6-1.41-9.6-3.3-11.98-5.65-2.41-2.35-3.61-5.33-3.61-8.98,0-2.4.61-4.65,1.85-6.77,1.24-2.13,3.08-3.79,5.55-5.01,2.47-1.22,5.87-1.83,10.17-1.83,5.29,0,9.31,1.11,12.09,3.32,2.77,2.21,4.43,5.73,4.96,10.55l-12.04.79c-.33-2.09-.99-3.62-2.02-4.57-1.03-.95-2.44-1.43-4.24-1.43-1.49,0-2.6.35-3.36,1.06-.75.71-1.13,1.57-1.13,2.59,0,.75.31,1.41.92,2,.59.62,2.03,1.19,4.29,1.71,5.58,1.35,9.59,2.73,12,4.11,2.41,1.38,4.18,3.11,5.27,5.16,1.1,2.05,1.66,4.35,1.66,6.89,0,2.98-.74,5.73-2.21,8.25-1.47,2.52-3.52,4.43-6.15,5.73-2.63,1.3-5.94,1.95-9.96,1.95-7.04,0-11.9-1.52-14.61-4.57-2.71-3.05-4.24-6.92-4.6-11.61h-.02Z"/>
      <g class="cls-3">
        <g>
          <path class="cls-4" d="M100.43,333.44c1.66-1.13,3.61-2.28,5.32-3.52,8.73-6.39,3.74-9.07-3.33-7.77-9.96,1.4-44.67,14.14-41.45,22.88,2.19,2.35,5.82,2.08,8.88,2.24,4.33-.03,9.24-.24,13.75.21,6.38.51,11.23,2.52,16.52,3.24,5.91.87,12.61-.97,18.58-1.38,5.02-.32,6.15,1.41,3.71,2.62-5.51,2.38-13.26,1.1-17.94,5.39-2,1.78-2.97,4.41-4.05,6.9-6.38,15.87-30.52,32.05-49.9,34.03-7.76.57-20.16-1.6-19.74-11.25.56-5.74,9.67-12.47,15.42-15.98,9.03-5.62,18.46-9.53,28.42-12.74,4.18-1.54,11.72-2.73,11.11-4.7-.53-.59-1.38-.73-2.32-.97-4.79-.92-10.14-.63-15.08-.52-6.32.35-18.33-.49-17.77-8.38,4.49-13.04,31.64-22.31,49.46-26.02,10.32-2.54,28.95.35,14.12,13.26-3.97,3.51-10.87,8.47-15.55,8.03-4.21-.41-.88-3.89,1.6-5.39l.25-.17h-.02ZM93.48,358.86c-2.38-2.78-9.43.6-14.41,2.05-12.03,4.27-23.59,9.68-33.49,17.9-3.25,2.84-5.21,5.12-5.82,7.52-.94,5.38,5.3,7.81,10.64,7.54,13.08-.49,44.88-21.23,43.17-34.86l-.08-.13-.02-.02Z"/>
          <path class="cls-4" d="M173.57,354.48c3.1,1.68-6.46,8.23-8.07,9.17-7.49,4.51-17.47,10.72-24.96,4.79-2.19-2.11-2.1-6.08-2.88-8.79-1.58-4.89-7.55-1.76-10.71-.14-6.12,2.9-10.65,9.33-16.42,11.26-5.54,1.35-5.36-4.36-3.39-8,3.33-8.01,13.31-23.56,22.85-32.92,8.62-8.28,21.41-19.2,31.14-14.18,7.73,5.6-6.18,17.2-10.81,20.94-5.55,4.24-11.81,7.77-17.14,10.49-3.36,1.52-10.79,6.11-11.48,8.09-.19,1.87,6.69-1.67,7.88-1.98,6.52-2.75,17.28-4.97,17.63,5.05.25,6.65,3.02,8.23,8.98,5.58,6.46-2.54,11.01-8.6,17.32-9.41h.11l-.03.05ZM136.89,333.25c-3.79,3.98-6.88,7.66-9.93,11.84-2.49,3.09,2.58-.08,5.15-1.27,9.39-5.08,18.36-11.34,24.53-20.07,1.45-2.59-.22-3.78-3.3-2.9-5.97,2.08-11.54,7.52-16.19,12.15l-.25.27v-.02Z"/>
          <path class="cls-4" d="M199.14,347.59c6.3,2.22-2.03,8.79-2.92,12.8-1.41,4.06,2.05,4.9,6.32,3.05,5.69-2.11,10.92-7.65,16.96-9.31,4.9-.49-1.47,5.44-3,6.3-7.68,4.84-18.5,12.87-27.54,7.96-2.47-1.43-4.14-4.27-7.3-3.49-6.07,1.67-17.91,10.93-22.59,2.44-.8-2.21-.02-4.73,1.2-6.7,3.97-6.24,12.97-11.5,21.21-13.34,6.19-.95,11.64-.92,17.46.22l.22.06ZM167.89,365.24c1.63,2.98,18.58-8.31,20.9-10.2,1.88-1.51,1-2.97-.94-3.32-5.9-1.41-20.52,8.57-20,13.37l.05.13v.02Z"/>
          <path class="cls-4" d="M223.8,348.44c1.56,1.51,3.14,1.89,5.24.95,2.74-1.03,6.21-2.97,9.31-3.13,3.96-.62,8.12,3.01,5.57,6.49-2.33,3.22-5.74.06-8.54-.3-1.11-.06-2.49.44-4.29,1.46-3.3,1.92-6.71,4.46-9.62,7.08-2.85,2.2-11.9,14.64-13.48,8.2.03-4.57,3.58-9.06,5.66-13.1,2.16-3.65,5.91-10.34,10.01-7.74l.12.09h.02Z"/>
          <path class="cls-4" d="M256.55,348.44c1.35,2.44,1.7,6.89,4.6,6.93,2.85.33,8.41-3.03,11.97-3.38,1.1-.16,4.41-.56,3.6,1.25-1.52,2.05-4.55,3.27-6.9,4.46-7.76,3.76-13.95,5.41-16.36,13.69-2.17,7.2-6.05,16.01-11.06,22.5-6.01,7.73-12.83,13.95-21.02,14.75-4.61.22-8.81-3-8.84-7.11-.03-3,1.53-5.62,3.05-8.17,6.59-11.14,18.68-19.32,28.34-26.72,5.46-4.2,4.6-12.6,7.46-18.32,1.28-2.24,3.77-2.59,5.08-.08l.11.19h-.03ZM228.89,387.08c-3.41,4.27-7.9,9.92-8.32,14.94.45,4.14,4.55,1.97,7.57-.92,4.66-4.36,9.03-10.34,12.17-16.06,3.02-5.43,8.16-17.37-.52-8.98-3.57,3.25-7.32,6.84-10.64,10.68l-.27.32v.02ZM262.89,333.79c-.55,4.13-8.13,3.14-9.76.27-.8-1.49,1.27-3.79,4.35-3.95,2.24-.18,5.07,1.13,5.41,3.47v.21Z"/>
          <path class="cls-4" d="M300.2,347.59c6.3,2.22-2.03,8.79-2.92,12.8-1.41,4.06,2.05,4.9,6.32,3.05,5.69-2.11,10.92-7.65,16.96-9.31,4.9-.49-1.47,5.44-3,6.3-7.68,4.84-18.5,12.87-27.54,7.96-2.47-1.43-4.15-4.27-7.3-3.49-6.07,1.67-17.91,10.93-22.59,2.44-.8-2.21-.02-4.73,1.2-6.7,3.97-6.24,12.97-11.5,21.21-13.34,6.19-.95,11.64-.92,17.46.22l.22.06ZM268.89,365.24c1.63,2.98,18.58-8.31,20.9-10.2,1.88-1.51,1-2.97-.94-3.32-5.9-1.41-20.52,8.57-20.01,13.37l.05.13v.02Z"/>
          <path class="cls-4" d="M357.89,365.46c2.86-.48,6.66-.7,2.8,2.55-3.63,2.95-11.59,4.93-15.97,1.59-3.05-2.14-2.69-6.6-3.58-9.73-2.05-5.49-9.6-.37-12.87,1.55-4.13,2.52-7.98,6.85-11.34,8.87-18.75,7.71,5.82-28.32,12.72-35.55,8.52-9.42,18.39-18.72,29.11-19.85,10.92.38,8.71,8.49,2.1,15.5-5.08,5.73-11.54,10.12-18.1,13.96-4.77,2.84-9.27,4.66-13.36,7.63-2.64,1.79-7.45,6.38.09,3.3,5.52-2.27,12.23-5.49,17.66-3.08,6.58,3.49-.52,15.37,10.5,13.31l.25-.03v-.03ZM339.89,333.25c-3.79,3.98-6.88,7.66-9.93,11.84-2.49,3.09,2.58-.08,5.15-1.27,9.38-5.08,18.36-11.34,24.53-20.07,1.46-2.59-.22-3.78-3.3-2.9-5.98,2.08-11.54,7.52-16.19,12.15l-.25.27v-.02Z"/>
        </g>
      </g>
      <path class="cls-2" d="M46.96,450.44c.78,2.59,2.64,4.38,6.86,4.38s5.9-1.67,5.9-3.7c0-2.16-1.18-3.48-6.78-4.44-6.47-1.1-8.02-3.18-8.02-6.16,0-3.86,3.58-6.03,8.29-6.03,7.02,0,8.64,3.73,8.9,5.95h-3.07c-.46-1.51-1.36-3.48-5.91-3.48-3.1,0-5.1,1.09-5.1,3.26,0,1.78.88,2.92,5.8,3.76,7.77,1.36,9.01,3.79,9.01,6.84,0,3.48-2.73,6.47-9.24,6.47-6.01,0-9.04-2.8-9.78-6.84h3.13Z"/>
      <path class="cls-2" d="M73.89,435.44h10.02c5.29,0,7.73,2.78,7.73,6.38,0,4.24-2.88,6.62-7.65,6.62h-7.1v8h-3v-21.02.02ZM76.89,445.44h6.82c3.01,0,5.09-.87,5.09-4.08,0-2.49-1.67-3.92-5.09-3.92h-6.82v8Z"/>
      <path class="cls-2" d="M123.9,446.01c0,6.03-4.04,11.22-11.11,11.22s-11.06-4.95-11.06-11.25c0-5.93,4.36-11.06,11.14-11.06s11.03,5.12,11.03,11.09ZM104.88,445.91c0,4.59,2.77,8.77,7.99,8.77s7.87-3.98,7.87-8.61-2.77-8.61-8.05-8.61c-4.93,0-7.82,3.92-7.82,8.47l.02-.02Z"/>
      <path class="cls-2" d="M137.89,447.42v9.02h-3v-21h10.23c4.37,0,7.34,1.94,7.34,5.68,0,2.54-1.3,4.34-3.92,5.02,1.41.39,3.35,1.42,3.35,5.12v.92c0,1.6,0,3.38.24,4.26h-2.97c-.34-.91-.27-2.49-.27-4.26v-.68c0-3.08-1.25-4.06-5.05-4.06h-5.93l-.02-.02ZM138.89,445.44h6.16c3.19,0,4.77-1.14,4.77-3.62,0-2.24-1.57-3.38-4.66-3.38h-6.27v7Z"/>
      <path class="cls-2" d="M169.89,438.44h-8v-3h19v3h-8v18h-3v-18Z"/>
      <path class="cls-2" d="M192.48,450.44c.78,2.59,2.64,4.38,6.86,4.38s5.9-1.67,5.9-3.7c0-2.16-1.18-3.48-6.78-4.44-6.47-1.1-8.02-3.18-8.02-6.16,0-3.86,3.58-6.03,8.29-6.03,7.02,0,8.64,3.73,8.9,5.95h-3.07c-.46-1.51-1.36-3.48-5.91-3.48-3.1,0-5.1,1.09-5.1,3.26,0,1.78.88,2.92,5.8,3.76,7.77,1.36,9.01,3.79,9.01,6.84,0,3.48-2.73,6.47-9.24,6.47-6.01,0-9.04-2.8-9.78-6.84h3.13Z"/>
      <path class="cls-2" d="M254.95,450.45c-1.23,3.8-3.95,6.94-10.18,6.94-7.23,0-11.16-5.12-11.16-11.47s4.36-11.54,11.31-11.54c6.28,0,9.26,3.42,10.12,7.05h-3.16c-.95-2.32-2.69-4.48-6.99-4.48-5,0-8.03,3.76-8.03,8.85s3,8.95,8.07,8.95c4.1,0,5.73-1.77,6.92-4.32h3.1l.02.02Z"/>
      <path class="cls-2" d="M265.9,435.44h2.98v19h12.6l-.45,3h-15.15v-22.02l.02.02Z"/>
      <path class="cls-2" d="M293.89,435.36v12.15c.07,5.63,3.34,7.17,6.51,7.17,3.89,0,6.21-1.87,6.49-7.17v-13.08h3v13.05c-.3,6.96-3.87,9.74-9.58,9.74s-9.32-2.84-9.42-9.49v-12.3h3v-.08Z"/>
      <path class="cls-2" d="M322.85,435.44h9.98c4.47,0,6.77,2.01,6.77,5.26,0,2.63-1.75,3.99-3.35,4.47,1.87.53,4.21,1.9,4.21,5.12,0,4.2-3.41,6.15-7.43,6.15h-10.14v-21h-.03ZM331.89,444.42c2.85,0,4.21-1.04,4.21-2.99,0-2.32-1.81-2.99-4.09-2.99h-6.12v6h6ZM324.89,454.44h6.99c2.57,0,5.3-.81,5.3-3.98,0-2.68-2.07-4.02-5.61-4.02h-6.68v8Z"/>
    </g>
  </g>
</svg>