<?xml version="1.0" encoding="UTF-8"?>
<svg id="Layer_2" data-name="Layer 2" xmlns="http://www.w3.org/2000/svg" xmlns:xlink="http://www.w3.org/1999/xlink" viewBox="0 0 422.58 303">
  <defs>
    <style>
      .cls-1 {
        fill: #221f1f;
      }

      .cls-2 {
        fill: #231f20;
      }

      .cls-3 {
        fill: #fff;
      }

      .cls-4 {
        mask: url(#mask);
      }

      .cls-5 {
        fill: none;
      }

      .cls-6 {
        fill: #010101;
      }

      .cls-7 {
        fill: #f05025;
      }
    </style>
    <mask id="mask" x="117.38" y="230.69" width="169.72" height="49.92" maskUnits="userSpaceOnUse">
      <g id="mask0_21_99" data-name="mask0 21 99">
        <path class="cls-3" d="M117.38,230.69v49.92h169.72v-49.92H117.38ZM118.16,267.99c.15-1.49,1.18-3.12,3.07-4.89l2.7,10.94c-3.86-.88-5.9-3.03-5.77-6.05ZM215.92,271.6c-1.06,1.58-1.62,2.88-1.74,3.97.04.24.1.33.12.35l.06.32h-4.84v1.49l-.52-.3c-.35-.61-.53-1.25-.54-1.92-.02-1.5.65-2.81,1.34-3.98h6.12v.09h0ZM220.18,266.44c-.47.49-.92.95-1.33,1.4h-6.3l.04-.25c1.54-1.8,3.3-3.4,4.83-4.68h2.75v3.52h0Z"/>
      </g>
    </mask>
  </defs>
  <g id="Layer_1-2" data-name="Layer 1">
    <g>
      <path class="cls-5" d="M134.44,95.99l.8-5.61s6.87-47.93,8.2-57.22c.03-.24.13-.47.27-.68-.15.21-.25.44-.29.69-1.33,9.29-8.2,57.22-8.2,57.22l-.8,5.61-7.44,51.88c-.11.76-.52,1.44-1.08,1.95.57-.51.99-1.2,1.1-1.96l7.44-51.88Z"/>
      <path class="cls-5" d="M205.31,241.48c8.95,0,17.67-1.03,26.05-2.93h-.02c-8.38,1.9-17.08,2.92-26.03,2.92s-17.64-1.02-26.01-2.92h-.03c8.38,1.9,17.09,2.93,26.03,2.93Z"/>
      <path class="cls-5" d="M161.99,233.2c-10.45-4.16-20.18-9.78-28.91-16.6,0,0,0,0,0-.01-7.8-6.1-14.81-13.15-20.86-20.99,2.87-18.32,5.59-35.73,6.59-42.07.06-.39.2-.77.4-1.11-.2.34-.35.72-.41,1.12-.99,6.34-3.72,23.75-6.59,42.07h0c6.05,7.84,13.06,14.9,20.87,20.99,8.73,6.82,18.45,12.44,28.9,16.59,0,0,0,0,.01,0Z"/>
      <path class="cls-5" d="M267.34,96.04c1.43,0,2.71,1.03,2.88,2.31l6.47,49.53c.1.78-.13,1.48-.58,1.99.46-.51.69-1.22.59-2l-6.47-49.53c-.17-1.28-1.45-2.31-2.88-2.31h-124.06c-.72,0-1.4.26-1.92.68.52-.42,1.2-.67,1.91-.67h124.06Z"/>
      <path class="cls-5" d="M112.21,195.61c-14.36-18.61-23.29-41.64-24.35-66.66,1.06,25.03,9.98,48.05,24.35,66.66Z"/>
      <path class="cls-5" d="M268.84,88.05l-7.17-54.89c-.06-.48.14-.91.5-1.23-.37.32-.58.75-.51,1.24l7.17,54.89c.08.61-.13,1.17-.54,1.57.41-.4.63-.96.55-1.58Z"/>
      <path d="M179.28,238.55h.03c-5.95-1.35-11.74-3.13-17.31-5.35,0,0,0,0-.01,0,5.57,2.22,11.35,4,17.3,5.35Z"/>
      <path d="M231.37,238.54c5.93-1.35,11.69-3.13,17.25-5.33,0,0,0,0,0,0-5.56,2.21-11.33,3.99-17.27,5.34h.02Z"/>
      <path class="cls-5" d="M171.48,125.96c14.02.1,65.9.02,67.54.03-.02-3.7-1.28-13.3-1.91-17.71-.43-.43-3.73-.42-4.15.04-.6.76-.15,3.03-.27,4.01.28,2.11-3.14.96-4.88,1.24h-4.54c-.86,0-1.22-.06-1.33-.69-.18-.87.05-3.34-.23-4.19-.21-.98-3.38-.97-3.57,0-.66,2.46,1.27,5.35-2.19,4.88h-7.34c-1.92.13-1.26-1.29-1.39-2.78.01-1.76.21-2.94-1.91-2.77-2.99-.45-1.54,3.26-1.98,4.87-.12.79-.69.68-2.04.69h-7.35c-1.92.13-1.25-1.29-1.37-2.78,0-.86.04-1.64-.1-2.09-.22-.98-3.34-.97-3.57,0-.57,1.14.83,5.33-1.56,4.88-2.13-.01-7.11.03-8.62-.02-1.91.26.48-6.07-1.98-5.52-.87.12-3.03-.41-3.36.51-.3,2.36-1.91,17.18-1.92,17.33v.08s.01,0,.01,0ZM179.37,119.99h10.63l-.02,1.61h-10.64l.03-1.61ZM171.89,122.14h10.65l-.02,1.62h-10.66l.03-1.62Z"/>
      <polygon class="cls-5" points="179.83 175.29 180.75 175.29 180.96 161.21 188.13 161.21 188.19 155.87 180.12 155.87 179.83 175.29"/>
      <polygon class="cls-5" points="182.66 173.89 187.01 173.89 187.13 163.15 182.8 163.15 182.66 173.89"/>
      <path class="cls-5" d="M231.34,238.54c-15.47,0-36.55,0-52.04,0,8.37,1.9,17.07,2.92,26.01,2.92s17.65-1.02,26.03-2.92Z"/>
      <path class="cls-5" d="M274.19,150.7c.79,0,1.46-.32,1.91-.82.45-.51.68-1.22.58-1.99l-6.47-49.53c-.17-1.28-1.45-2.31-2.88-2.31h-124.06c-.71,0-1.39.26-1.91.67-.52.42-.88.99-.96,1.62-1.11,8.47-5.18,39.65-6.47,49.55-.2,1.55.92,2.81,2.5,2.81h1.5c1.58,0,2.72,1.27,2.54,2.84-1.03,8.78-4.55,38.79-7.4,63.06,0,0,0,0,0,0,0,0,0,0,0,.01,8.74,6.82,18.46,12.44,28.91,16.6.57-.11.32-.44.43-1.19.72-22.42,1.43-77,2.49-83.37,1.26-11.25,4.28-38.18,4.9-43.76.17-.82-.19-1.17,1.02-1.18,1.96.01,6.25-.03,8.45-.01,1.38.01,2.2-.08,2.5.46.65,1.22-.52,4.76,1.61,4.92,2.32.2.67-5.21,2.34-5.32,1.52-.06,9.01-.28,10.39.14.88,1.26.2,3.05.8,4.46.7,1.23,2.12.76,2.39-.53.44-1.31-.6-4.16,1.47-4.12.91-.03,2.44,0,4.05-.01,4.01.38,6.53-1.23,6.36,2.04.02.7-.02,1.49.13,2.09.39,1.67,2.21,1.66,2.59,0,.26-.99-.09-2.83.36-3.67.39-.82,3.1-.33,6.1-.46,2.66.11,4.74-.31,5.14.46.67,1.39-.41,4.68,1.74,4.92,2.13-.16.96-3.69,1.61-4.92.38-.77,2.54-.35,5.28-.46,2.96.2,5.9-.47,6.59.41.36,3.1,3.78,33.6,5.06,44.99,1.39,7.4.98,61.77,2.84,84.11,10.46-4.16,20.19-9.78,28.93-16.61-2.85-24.27-6.37-54.28-7.4-63.06-.18-1.58.95-2.84,2.54-2.84h0s0,0,0,0h1.51Z"/>
      <path class="cls-5" d="M243.92,232.22c-.44-15.82-1.02-50.88-1.52-69.25h-13.51l-.02-1.13h13.49c-.08-2.68-.15-4.97-.22-6.75h-19.34l-.02-1.68h19.28c-.05-.97-.09-1.68-.14-2.1-.67-5.86-2.28-21.08-2.37-21.23-.09-.22-4.84-.04-11.97-.1-19.51.35-55.85-.71-56.57.44-.36,2.32-.69,4.82-.97,7.48h10.67l-.02,1.65h-10.76l.02-.71c-.12,1.13-.23,2.28-.34,3.46h5.11l-.03,1.66h-5.22c-.08.91-.15,1.83-.22,2.77h13.5l-.02,1.67h-13.52l.03-1.44c-.27,3.64-.5,7.49-.69,11.51h6.43l-.03,1.69h-6.48c-.13,2.76-.24,5.6-.34,8.5h1.73l-.04,1.71h-1.75c-.05,1.51-.1,3.04-.14,4.58h5.65l-.03,1.72h-5.66c-.05,1.9-.1,3.83-.15,5.77h11.77l-.02,1.16h-11.78c-.24,10.66-.41,21.87-.63,33.09h5.71l-.03,1.81h-5.71c-.02,1.21-.05,2.42-.07,3.63h15.88l-.02,1.82h-15.9c-.07,3.17-.14,6.34-.22,9.48l.02.02c15.93-.06,79.29.14,77.22-.07.02-.12,0-.5-.01-1.15ZM178.05,135.71h-5.37l.02-1.09h5.36l-.02,1.09ZM174.8,166.94h-5.47l.04-1.7h5.46l-.03,1.7ZM178.21,228.81h-5.67l.03-1.83h5.66l-.03,1.83ZM202.15,165.81h7.65v1.7s-7.65,0-7.65,0v-1.7ZM193.79,189.4h3.88l-.04,8.8h-3.9l.06-8.8ZM182.79,142.3h5.39l-.02,1.66h-5.39l.02-1.66ZM191.38,146.73v1.67h-5.42l.02-1.67h5.4ZM177.18,155.65h-5.43l.03-1.68h5.43l-.03,1.68ZM177.9,177.26l.38-23.31h11.78l-.21,23.31h-11.95ZM185.03,180.12l-.02,1.73h-5.52l.03-1.73h5.51ZM176.68,185.33h5.53l-.02,1.16h-5.53l.02-1.16ZM183.81,189.4l-.11,8.8h-3.9l.13-8.8h3.88ZM174.95,189.4h3.88l-.14,8.8h-3.9l.16-8.8ZM178.56,206.5l-.03,1.79h-5.6l.03-1.79h5.6ZM169.96,189.4h3.88l-.16,8.8h-3.9l.18-8.8ZM167.21,213.67l.04-1.8h10.67l-.03,1.8h-10.68ZM182.88,218.49h-5.64l.03-1.81h5.63l-.02,1.81ZM182.97,211.87h5.62l-.02,1.8h-5.62l.02-1.8ZM192.43,223.94h-5.65l.02-1.82h5.65v1.82ZM192.62,198.2h-3.9l.09-8.8h3.88l-.07,8.8ZM198.67,217.88h-5.63v-1.81h5.64v1.81ZM203.2,198.2h-3.9l.03-8.8h3.88v8.8ZM207.66,198.2v-8.8s3.87,0,3.87,0l.03,8.8h-3.9ZM212.67,198.2l-.04-8.8h3.88l.06,8.8h-3.9ZM218.24,198.2l-.07-8.8h3.88l.09,8.8h-3.9ZM226.6,198.2l-.11-8.8h3.88l.13,8.8h-3.9ZM232.17,198.2l-.14-8.8h3.88l.16,8.8h-3.9ZM237.18,198.2l-.16-8.8h3.88l.18,8.8h-3.9Z"/>
      <polygon points="188.18 142.3 182.79 142.3 182.77 143.96 188.16 143.96 188.18 142.3"/>
      <polygon points="197.67 189.4 193.79 189.4 193.73 198.2 197.63 198.2 197.67 189.4"/>
      <polygon points="185.95 148.4 191.36 148.4 191.38 146.73 185.97 146.73 185.95 148.4"/>
      <polygon points="171.75 155.65 177.18 155.65 177.21 153.97 171.78 153.97 171.75 155.65"/>
      <polygon points="190.01 119.99 179.37 119.99 179.35 121.6 189.99 121.6 190.01 119.99"/>
      <polygon points="182.53 122.14 171.89 122.14 171.85 123.75 182.51 123.75 182.53 122.14"/>
      <polygon points="172.68 135.71 178.05 135.71 178.07 134.62 172.7 134.62 172.68 135.71"/>
      <polygon points="209.8 165.81 202.15 165.81 202.14 167.51 209.8 167.51 209.8 165.81"/>
      <path d="M190.06,153.95h-11.78l-.38,23.31h11.95l.21-23.31ZM187.01,173.89h-4.35l.14-10.74h4.32l-.12,10.74ZM188.13,161.21h-7.17l-.2,14.08h-.93l.29-19.42h8.07l-.05,5.34Z"/>
      <polygon points="169.33 166.94 174.8 166.94 174.83 165.24 169.37 165.24 169.33 166.94"/>
      <polygon points="172.54 228.81 178.21 228.81 178.24 226.98 172.58 226.98 172.54 228.81"/>
      <polygon points="212.63 189.4 212.67 198.2 216.57 198.2 216.51 189.4 212.63 189.4"/>
      <polygon points="199.3 198.2 203.2 198.2 203.21 189.4 199.33 189.4 199.3 198.2"/>
      <polygon points="218.18 189.4 218.24 198.2 222.14 198.2 222.05 189.4 218.18 189.4"/>
      <polygon points="207.64 189.4 207.66 198.2 211.56 198.2 211.52 189.4 207.64 189.4"/>
      <polygon points="193.03 217.88 198.67 217.88 198.68 216.08 193.05 216.08 193.03 217.88"/>
      <polygon points="237.02 189.4 237.18 198.2 241.08 198.2 240.9 189.4 237.02 189.4"/>
      <polygon points="188.72 198.2 192.62 198.2 192.68 189.4 188.8 189.4 188.72 198.2"/>
      <polygon points="232.03 189.4 232.17 198.2 236.07 198.2 235.91 189.4 232.03 189.4"/>
      <polygon points="226.49 189.4 226.6 198.2 230.5 198.2 230.37 189.4 226.49 189.4"/>
      <polygon points="182.21 185.33 176.68 185.33 176.66 186.49 182.19 186.49 182.21 185.33"/>
      <polygon points="178.83 189.4 174.95 189.4 174.79 198.2 178.69 198.2 178.83 189.4"/>
      <polygon points="179.8 198.2 183.7 198.2 183.81 189.4 179.93 189.4 179.8 198.2"/>
      <polygon points="185.01 181.85 185.03 180.12 179.52 180.12 179.5 181.85 185.01 181.85"/>
      <polygon points="186.77 223.94 192.43 223.94 192.44 222.12 186.79 222.12 186.77 223.94"/>
      <polygon points="172.93 208.29 178.53 208.29 178.56 206.5 172.96 206.5 172.93 208.29"/>
      <polygon points="173.84 189.4 169.96 189.4 169.78 198.2 173.68 198.2 173.84 189.4"/>
      <polygon points="177.25 218.49 182.88 218.49 182.91 216.68 177.28 216.68 177.25 218.49"/>
      <polygon points="177.92 211.87 167.25 211.87 167.21 213.67 177.89 213.67 177.92 211.87"/>
      <polygon points="188.58 211.87 182.97 211.87 182.95 213.67 188.57 213.67 188.58 211.87"/>
      <path class="cls-6" d="M288.5,150.71h-1.61c-1.59,0-3.06-1.26-3.28-2.82-1.67-11.61-7.44-51.89-7.44-51.89l-.8-5.61-8.2-57.22c-.13-.97-1.25-1.75-2.5-1.75h-.99c-.62,0-1.14.19-1.51.5-.36.32-.56.75-.5,1.23l7.17,54.89c.08.62-.14,1.18-.55,1.58-.41.41-1.01.66-1.72.66h-122.53c-1.41,0-2.42-1-2.26-2.23l7.17-54.89c.12-.96-.78-1.74-2.02-1.74h-.99c-.92,0-1.78.43-2.21,1.05-.14.21-.24.44-.27.68-1.33,9.29-8.2,57.22-8.2,57.22l-.8,5.61-7.44,51.88c-.11.76-.52,1.45-1.1,1.96-.6.54-1.37.88-2.19.88h-1.61c-1.18,0-2.31.71-2.9,1.72-.2.34-.34.71-.4,1.11-.99,6.34-3.72,23.75-6.59,42.07,6.05,7.84,13.06,14.89,20.86,20.99,2.85-24.26,6.37-54.27,7.4-63.05.18-1.58-.95-2.84-2.54-2.84h-1.5c-1.59,0-2.71-1.26-2.5-2.81,1.29-9.89,5.36-41.07,6.47-49.54.08-.64.45-1.21.97-1.63.52-.42,1.2-.68,1.92-.68h124.06c1.43,0,2.71,1.03,2.88,2.31l6.47,49.53c.1.78-.13,1.49-.59,2-.45.51-1.13.83-1.92.83h-1.51c-1.58,0-2.71,1.26-2.53,2.84,1.03,8.78,4.55,38.79,7.4,63.06,7.8-6.09,14.81-13.14,20.85-20.98-2.87-18.32-5.59-35.73-6.59-42.07-.25-1.58-1.74-2.84-3.32-2.84Z"/>
      <path class="cls-6" d="M122.11,150.7h1.61c.82,0,1.59-.34,2.19-.88-.6.53-1.37.86-2.18.86h-1.61c-1.19,0-2.32.71-2.92,1.73.6-1.01,1.72-1.72,2.9-1.72Z"/>
      <path class="cls-6" d="M291.83,153.54c-.25-1.58-1.73-2.84-3.32-2.84h0s-1.61,0-1.61,0c-1.59,0-3.05-1.26-3.28-2.82-1.67-11.61-7.44-51.89-7.44-51.89l-.8-5.61-8.2-57.22c-.14-.97-1.26-1.75-2.5-1.75h-.99c-.62,0-1.16.2-1.52.51.37-.31.89-.5,1.51-.5h.99c1.25,0,2.37.78,2.5,1.75l8.2,57.22.8,5.61s5.77,40.28,7.44,51.89c.22,1.56,1.69,2.82,3.28,2.82h1.61c1.58,0,3.07,1.27,3.32,2.84.99,6.34,3.72,23.74,6.59,42.07,0,0,0-.01.01-.02-2.87-18.32-5.59-35.73-6.59-42.07Z"/>
      <path class="cls-6" d="M146.92,31.43c1.24,0,2.14.78,2.02,1.74l-7.17,54.89c-.16,1.23.85,2.23,2.26,2.23h122.53c.71,0,1.31-.25,1.72-.66-.41.4-1.01.65-1.71.65h-122.53c-1.41,0-2.42-1-2.26-2.23l7.16-54.89c.13-.97-.78-1.74-2.02-1.74h-.99c-.94,0-1.8.44-2.23,1.06.43-.62,1.29-1.05,2.21-1.05h.99Z"/>
      <path class="cls-6" d="M274.19,150.7c.79,0,1.47-.32,1.92-.83-.45.51-1.12.82-1.91.82h-1.51s0,0,0,0h0s1.51,0,1.51,0Z"/>
      <path class="cls-6" d="M140.49,153.53c.18-1.58-.95-2.84-2.54-2.84h-1.5c-1.58,0-2.71-1.26-2.5-2.81,1.29-9.89,5.36-41.08,6.47-49.55.08-.64.44-1.21.96-1.62-.52.42-.88.99-.97,1.63-1.11,8.47-5.18,39.66-6.47,49.54-.2,1.55.92,2.81,2.5,2.81h1.5c1.58,0,2.72,1.27,2.54,2.84-1.03,8.78-4.55,38.79-7.4,63.05,0,0,0,0,0,0,2.85-24.27,6.37-54.28,7.4-63.06Z"/>
      <path class="cls-1" d="M243.41,51.41c-6.67-3.17-13.25-3.27-14.7-.23-1.45,3.05,2.78,8.09,9.45,11.26,6.67,3.17,13.25,3.27,14.7.23,1.45-3.05-2.78-8.09-9.45-11.26ZM248.93,57.71c-.34.65-3.49-.29-7.05-2.12-3.56-1.82-6.17-3.83-5.83-4.49s3.49.29,7.05,2.12c3.56,1.82,6.17,3.83,5.83,4.49Z"/>
      <g>
        <path d="M329.23,123.92c0-68.33-55.58-123.92-123.92-123.92s-123.92,55.59-123.92,123.92c0,30.54,11.11,58.53,29.49,80.15,6.31,7.42,13.47,14.09,21.34,19.85.27-2.36.57-4.81.86-7.31-7.8-6.1-14.82-13.15-20.87-20.99h0c-14.37-18.61-23.29-41.64-24.35-66.66-.07-1.67-.11-3.35-.11-5.03,0-64.82,52.74-117.56,117.56-117.56s117.56,52.74,117.56,117.56c0,26.97-9.14,51.84-24.46,71.7-6.05,7.84-13.06,14.9-20.87,20.99.29,2.51.58,4.96.86,7.31,7.86-5.77,15.03-12.43,21.34-19.85h0c18.39-21.62,29.49-49.61,29.49-80.15Z"/>
        <path d="M154.41,236.86c1.44.65,2.89,1.27,4.35,1.87.44.18.88.36,1.32.53,1.66.65,3.33,1.27,5.02,1.86,12.61,4.34,26.14,6.72,40.21,6.72,16.46,0,32.16-3.25,46.54-9.1,1.47-.6,2.92-1.22,4.36-1.87,7.86-3.56,15.3-7.9,22.19-12.95-.27-2.36-.57-4.81-.86-7.31-7.28,5.68-15.27,10.47-23.77,14.33-.94.43-2.02.3-2.87-.3-.38-.27-.8-.53-1.27-.79-.84-.46-1.36-1.33-1.41-2.28-1.42-24.72-1.17-71.63-2.45-78.47-1.28-11.39-4.7-41.89-5.06-44.99-.69-.88-3.63-.21-6.59-.41-2.74.11-4.89-.31-5.28.46-.65,1.23.52,4.76-1.61,4.92-2.15-.24-1.07-3.54-1.74-4.92-.39-.77-2.47-.35-5.14-.46-3,.14-5.71-.36-6.1.46-.45.84-.1,2.68-.36,3.67-.38,1.66-2.2,1.67-2.59,0-.15-.6-.12-1.4-.13-2.09.18-3.27-2.34-1.66-6.36-2.04-1.61,0-3.14-.02-4.05.01-2.07-.04-1.03,2.81-1.47,4.12-.27,1.29-1.7,1.77-2.39.53-.6-1.41.08-3.2-.8-4.46-1.38-.42-8.87-.2-10.39-.14-1.67.11-.02,5.52-2.34,5.32-2.13-.16-.97-3.7-1.61-4.92-.3-.54-1.12-.45-2.5-.46-2.2-.02-6.49.02-8.45.01-1.21,0-.85.36-1.02,1.18-.62,5.58-3.64,32.5-4.9,43.76-1,6.03-1.68,55.19-2.37,79.47-.03.92-.5,1.77-1.27,2.27-.24.15-.46.31-.67.47-.87.66-2.01.87-3.01.42-8.78-3.91-17.01-8.82-24.5-14.66-.29,2.51-.58,4.96-.86,7.31,6.89,5.05,14.32,9.39,22.19,12.94ZM173.38,108.55c.33-.93,2.49-.39,3.36-.51,2.46-.56.07,5.78,1.98,5.52,1.5.05,6.49.01,8.62.02,2.39.46.99-3.74,1.56-4.88.24-.97,3.36-.98,3.57,0,.15.45.11,1.24.1,2.09.12,1.49-.56,2.91,1.37,2.78h7.35c1.35-.01,1.92.1,2.04-.69.44-1.61-1.01-5.32,1.98-4.87,2.12-.16,1.93,1.01,1.91,2.77.13,1.49-.53,2.91,1.39,2.78h7.34c3.45.47,1.53-2.42,2.19-4.88.19-.97,3.36-.98,3.57,0,.27.85.05,3.32.23,4.19.11.63.47.69,1.33.69h4.54c1.74-.28,5.16.87,4.88-1.24.12-.98-.33-3.25.27-4.01.41-.46,3.72-.47,4.15-.04.62,4.41,1.89,14,1.91,17.71-1.65-.01-53.52.06-67.54-.03h0s-.01-.08-.01-.08c0-.16,1.62-14.97,1.92-17.33ZM166.92,223.94h15.9l.02-1.82h-15.88c.03-1.21.05-2.42.07-3.63h5.71l.03-1.81h-5.71c.21-11.22.38-22.43.63-33.09h11.78l.02-1.16h-11.77c.05-1.94.09-3.87.15-5.77h5.66l.03-1.72h-5.65c.04-1.54.09-3.07.14-4.58h1.75l.04-1.71h-1.73c.1-2.9.21-5.74.34-8.5h6.48l.03-1.69h-6.43c.19-4.02.42-7.87.69-11.51l-.03,1.44h13.52l.02-1.67h-13.5c.07-.94.14-1.86.22-2.77h5.22l.03-1.66h-5.11c.11-1.18.22-2.34.34-3.46l-.02.71h10.76l.02-1.65h-10.67c.29-2.66.61-5.16.97-7.48.72-1.15,37.06-.09,56.57-.44,7.13.06,11.88-.12,11.97.1.09.15,1.7,15.37,2.37,21.23.05.42.09,1.13.14,2.1h-19.28l.02,1.68h19.34c.07,1.78.15,4.07.22,6.75h-13.49l.02,1.13h13.51c.46,16.71.98,47.21,1.4,64.5-8.66-2.69-22.39-4.44-37.89-4.44s-30.52,1.91-39.08,4.82c.03-1.3.06-2.6.09-3.91Z"/>
      </g>
    </g>
    <g>
      <path class="cls-2" d="M153.55,241.41c.82-.56,1.8-1.14,2.64-1.75,4.34-3.18,1.86-4.51-1.66-3.86-4.95.69-22.2,7.02-20.6,11.37,1.09,1.17,2.89,1.03,4.41,1.11,2.15-.02,4.59-.12,6.83.1,3.17.25,5.58,1.25,8.21,1.61,2.94.43,6.26-.48,9.23-.69,2.5-.16,3.05.7,1.84,1.3-2.74,1.18-6.59.54-8.92,2.68-1,.88-1.48,2.19-2.01,3.43-3.17,7.88-15.16,15.92-24.79,16.91-3.86.28-10.02-.8-9.81-5.59.28-2.85,4.8-6.2,7.66-7.94,4.48-2.79,9.17-4.74,14.12-6.33,2.08-.76,5.82-1.36,5.52-2.33-.26-.29-.68-.36-1.15-.48-2.38-.46-5.04-.32-7.49-.26-3.14.17-9.11-.24-8.83-4.16,2.23-6.48,15.72-11.08,24.58-12.93,5.13-1.26,14.39.17,7.02,6.59-1.97,1.74-5.4,4.21-7.73,3.99-2.09-.21-.44-1.93.79-2.68l.12-.09h0ZM150.1,254.13c-1.18-1.38-4.69.3-7.16,1.02-5.98,2.12-11.72,4.81-16.64,8.89-1.62,1.41-2.59,2.55-2.89,3.74-.47,2.67,2.63,3.88,5.29,3.74,6.5-.24,22.3-10.55,21.45-17.32l-.04-.06h0Z"/>
      <path class="cls-2" d="M189.9,252.17c1.54.84-3.21,4.09-4.01,4.56-3.72,2.24-8.68,5.33-12.4,2.38-1.09-1.05-1.04-3.02-1.43-4.37-.79-2.43-3.75-.88-5.32-.07-3.04,1.44-5.29,4.64-8.16,5.6-2.75.67-2.67-2.17-1.69-3.97,1.66-3.98,6.61-11.71,11.36-16.36,4.28-4.12,10.64-9.54,15.48-7.05,3.84,2.78-3.07,8.55-5.37,10.41-2.76,2.11-5.87,3.86-8.52,5.21-1.67.76-5.36,3.04-5.71,4.02-.09.93,3.33-.83,3.92-.99,3.24-1.36,8.59-2.47,8.76,2.51.12,3.3,1.5,4.09,4.46,2.77,3.21-1.26,5.47-4.27,8.6-4.67h.05l-.02.02ZM171.53,241.4c-1.88,1.98-3.42,3.81-4.94,5.88-1.24,1.54,1.28-.04,2.56-.63,4.66-2.52,9.13-5.64,12.19-9.97.72-1.29-.11-1.88-1.64-1.44-2.97,1.03-5.74,3.74-8.04,6.04l-.12.13h0Z"/>
      <path class="cls-2" d="M202.6,248.53c3.13,1.1-1.01,4.37-1.45,6.36-.7,2.02,1.02,2.44,3.14,1.51,2.83-1.05,5.43-3.8,8.43-4.63,2.43-.24-.73,2.7-1.49,3.13-3.82,2.4-9.19,6.39-13.69,3.96-1.23-.71-2.06-2.12-3.63-1.73-3.02.83-8.9,5.43-11.22,1.21-.4-1.1,0-2.35.6-3.33,1.97-3.1,6.44-5.72,10.54-6.63,3.08-.47,5.78-.46,8.67.11l.11.03ZM186.96,257.29c.81,1.48,9.23-4.13,10.38-5.07.93-.75.5-1.47-.47-1.65-2.93-.7-10.2,4.26-9.94,6.65l.02.06h0Z"/>
      <path class="cls-2" d="M214.85,248.85c.78.75,1.56.94,2.6.47,1.36-.51,3.09-1.47,4.62-1.55,1.97-.31,4.03,1.5,2.77,3.22-1.16,1.6-2.85.03-4.24-.15-.55-.03-1.24.22-2.13.73-1.64.95-3.33,2.22-4.78,3.52-1.41,1.1-5.91,7.28-6.7,4.08.02-2.27,1.78-4.5,2.81-6.51,1.07-1.81,2.94-5.14,4.97-3.85l.06.05h0Z"/>
      <path class="cls-2" d="M231.13,249.1c.67,1.21.85,3.42,2.29,3.44,1.41.17,4.18-1.51,5.95-1.68.54-.08,2.19-.28,1.79.62-.75,1.02-2.26,1.62-3.43,2.22-3.86,1.87-6.93,2.69-8.13,6.8-1.08,3.58-3.01,7.95-5.5,11.18-2.98,3.84-6.37,6.93-10.45,7.33-2.29.11-4.38-1.49-4.39-3.53-.02-1.49.76-2.79,1.52-4.06,3.27-5.53,9.28-9.6,14.08-13.28,2.71-2.09,2.29-6.26,3.71-9.11.64-1.11,1.87-1.28,2.53-.04l.05.09h-.02ZM217.53,268.15c-1.69,2.12-3.93,4.93-4.13,7.43.23,2.06,2.26.98,3.76-.46,2.32-2.17,4.48-5.14,6.05-7.98,1.5-2.7,4.06-8.63-.26-4.46-1.77,1.62-3.64,3.4-5.29,5.31l-.13.16h0ZM234.46,241.67c-.27,2.05-4.04,1.56-4.85.13-.4-.74.63-1.88,2.16-1.96,1.11-.09,2.52.56,2.69,1.73v.09h0Z"/>
      <path class="cls-2" d="M252.82,248.53c3.13,1.1-1.01,4.37-1.45,6.36-.7,2.02,1.02,2.44,3.14,1.51,2.83-1.05,5.43-3.8,8.43-4.63,2.43-.24-.73,2.7-1.49,3.13-3.82,2.4-9.2,6.39-13.69,3.96-1.23-.71-2.06-2.12-3.63-1.73-3.02.83-8.9,5.43-11.22,1.21-.4-1.1,0-2.35.6-3.33,1.97-3.1,6.44-5.72,10.54-6.63,3.08-.47,5.78-.46,8.67.11l.11.03ZM237.18,257.29c.81,1.48,9.23-4.13,10.38-5.07.93-.75.5-1.47-.47-1.65-2.93-.7-10.2,4.26-9.94,6.65l.02.06h0Z"/>
      <path class="cls-2" d="M281.33,257.4c1.42-.24,3.31-.35,1.39,1.27-1.8,1.47-5.76,2.45-7.94.79-1.52-1.06-1.34-3.28-1.78-4.83-1.02-2.73-4.77-.18-6.4.77-2.05,1.25-3.96,3.41-5.63,4.41-9.32,3.83,2.89-14.07,6.32-17.67,4.24-4.68,9.14-9.3,14.46-9.86,5.43.19,4.33,4.22,1.04,7.7-2.53,2.85-5.74,5.03-8.99,6.94-2.37,1.41-4.61,2.32-6.64,3.79-1.31.89-3.7,3.17.05,1.64,2.74-1.13,6.08-2.73,8.78-1.53,3.27,1.73-.26,7.64,5.22,6.61l.12-.02v-.02ZM272.39,241.4c-1.88,1.98-3.42,3.81-4.94,5.88-1.24,1.54,1.28-.04,2.56-.63,4.66-2.52,9.12-5.64,12.19-9.97.72-1.28-.11-1.88-1.64-1.44-2.97,1.03-5.74,3.74-8.04,6.04l-.12.13h0Z"/>
      <path class="cls-2" d="M103.8,262.92h6.03l2.17,12.94,3.18-12.94h6.01l3.19,12.92,2.18-12.92h6l-4.53,23.11h-6.23l-3.61-14.55-3.59,14.55h-6.23l-4.57-23.11Z"/>
      <path class="cls-2" d="M147.25,282.21h-7.21l-1,3.82h-6.48l7.73-23.11h6.93l7.72,23.11h-6.65l-1.03-3.82h0ZM145.93,277.21l-2.27-8.31-2.25,8.31h4.52Z"/>
      <path class="cls-2" d="M156.99,262.92h5.93l7.73,12.78v-12.78h5.98v23.11h-5.98l-7.69-12.68v12.68h-5.97v-23.11Z"/>
      <path class="cls-2" d="M180.93,262.92h9.44c1.86,0,3.36.28,4.51.85,1.14.57,2.09,1.38,2.84,2.44.75,1.06,1.29,2.29,1.62,3.71s.5,2.9.5,4.48c0,2.47-.25,4.38-.75,5.75-.51,1.36-1.2,2.5-2.08,3.42-.89.92-1.84,1.53-2.86,1.84-1.39.42-2.65.63-3.79.63h-9.44v-23.11h0ZM187.28,268.14v12.62h1.55c1.33,0,2.27-.17,2.83-.5.56-.33,1-.91,1.31-1.73.32-.83.47-2.16.47-4.01,0-2.44-.36-4.12-1.06-5.03-.71-.91-1.89-1.36-3.53-1.36h-1.59,0Z"/>
      <path class="cls-2" d="M203.16,262.92h17.01v4.93h-10.65v3.67h9.88v4.71h-9.88v4.56h10.96v5.23h-17.33v-23.11h0Z"/>
      <path class="cls-2" d="M223.99,286.02v-23.11h10.58c1.96,0,3.46.19,4.5.57,1.04.38,1.87,1.08,2.51,2.11.64,1.02.96,2.27.96,3.74,0,1.29-.24,2.39-.73,3.32-.49.93-1.16,1.69-2.01,2.26-.54.37-1.28.67-2.23.91.75.28,1.31.57,1.66.85.23.19.58.59,1.02,1.21.44.62.74,1.1.89,1.43l3.08,6.69h-7.17l-3.4-7.06c-.43-.91-.82-1.51-1.15-1.78-.46-.35-.98-.54-1.55-.54h-.56v9.37h-6.38ZM230.36,272.27h2.67c.29,0,.85-.1,1.68-.32.42-.09.76-.34,1.03-.73.26-.39.4-.84.4-1.34,0-.75-.21-1.32-.63-1.72-.42-.4-1.21-.6-2.37-.6h-2.79v4.7h.02Z"/>
      <path class="cls-2" d="M246.22,262.92h17.01v4.93h-10.65v3.67h9.88v4.71h-9.88v4.56h10.96v5.23h-17.32v-23.11h0Z"/>
      <path class="cls-2" d="M267.04,286.02v-23.11h10.58c1.96,0,3.46.19,4.5.57,1.04.38,1.87,1.08,2.51,2.11.64,1.02.96,2.27.96,3.74,0,1.29-.24,2.39-.73,3.32-.49.93-1.16,1.69-2.01,2.26-.54.37-1.28.67-2.23.91.75.28,1.31.57,1.66.85.23.19.58.59,1.02,1.21.44.62.74,1.1.89,1.43l3.08,6.69h-7.17l-3.4-7.06c-.43-.91-.82-1.51-1.15-1.78-.46-.35-.98-.54-1.55-.54h-.56v9.37h-6.38ZM273.41,272.27h2.67c.29,0,.85-.1,1.68-.32.42-.09.76-.34,1.03-.73.26-.39.4-.84.4-1.34,0-.75-.21-1.32-.63-1.72-.42-.4-1.21-.6-2.37-.6h-2.79v4.7h.02Z"/>
      <path class="cls-2" d="M288.17,278.38l6.04-.43c.13,1.1.4,1.95.8,2.52.65.94,1.59,1.4,2.81,1.4.91,0,1.6-.24,2.1-.72.49-.48.74-1.03.74-1.66s-.23-1.14-.7-1.61c-.47-.47-1.55-.92-3.25-1.34-2.78-.7-4.77-1.64-5.95-2.81-1.2-1.17-1.8-2.65-1.8-4.46,0-1.19.3-2.31.92-3.37.61-1.06,1.53-1.88,2.76-2.49,1.23-.61,2.91-.91,5.05-.91,2.63,0,4.62.55,6.01,1.65,1.38,1.1,2.2,2.85,2.46,5.24l-5.98.39c-.16-1.04-.49-1.8-1-2.27-.51-.47-1.21-.71-2.11-.71-.74,0-1.29.17-1.67.53-.37.35-.56.78-.56,1.28,0,.37.16.7.46.99.3.31,1.01.59,2.13.85,2.77.67,4.76,1.36,5.96,2.04,1.2.69,2.08,1.55,2.62,2.56.54,1.02.82,2.16.82,3.42,0,1.48-.37,2.85-1.1,4.1-.73,1.25-1.75,2.2-3.05,2.85-1.31.65-2.95.97-4.95.97-3.5,0-5.91-.76-7.26-2.27-1.34-1.51-2.11-3.44-2.29-5.77h0Z"/>
      <g class="cls-4">
        <g>
          <path class="cls-7" d="M153.55,241.41c.82-.56,1.8-1.14,2.64-1.75,4.34-3.18,1.86-4.51-1.66-3.86-4.95.69-22.2,7.02-20.6,11.37,1.09,1.17,2.89,1.03,4.41,1.11,2.15-.02,4.59-.12,6.83.1,3.17.25,5.58,1.25,8.21,1.61,2.94.43,6.26-.48,9.23-.69,2.5-.16,3.05.7,1.84,1.3-2.74,1.18-6.59.54-8.92,2.68-1,.88-1.48,2.19-2.01,3.43-3.17,7.88-15.16,15.92-24.79,16.91-3.86.28-10.02-.8-9.81-5.59.28-2.85,4.8-6.2,7.66-7.94,4.48-2.79,9.17-4.74,14.12-6.33,2.08-.76,5.82-1.36,5.52-2.33-.26-.29-.68-.36-1.15-.48-2.38-.46-5.04-.32-7.49-.26-3.14.17-9.11-.24-8.83-4.16,2.23-6.48,15.72-11.08,24.58-12.93,5.13-1.26,14.39.17,7.02,6.59-1.97,1.74-5.4,4.21-7.73,3.99-2.09-.21-.44-1.93.79-2.68l.12-.09h0ZM150.1,254.13c-1.18-1.38-4.69.3-7.16,1.02-5.98,2.12-11.72,4.81-16.64,8.89-1.62,1.41-2.59,2.55-2.89,3.74-.47,2.67,2.63,3.88,5.29,3.74,6.5-.24,22.3-10.55,21.45-17.32l-.04-.06h0Z"/>
          <path class="cls-7" d="M189.89,252.17c1.54.84-3.21,4.09-4.01,4.56-3.72,2.24-8.68,5.33-12.4,2.38-1.09-1.05-1.04-3.02-1.43-4.37-.79-2.43-3.75-.88-5.32-.07-3.04,1.44-5.29,4.64-8.16,5.6-2.75.67-2.67-2.17-1.69-3.97,1.66-3.98,6.61-11.71,11.36-16.36,4.28-4.12,10.64-9.54,15.48-7.05,3.84,2.78-3.07,8.55-5.37,10.41-2.76,2.11-5.87,3.86-8.52,5.21-1.67.76-5.36,3.04-5.71,4.02-.09.93,3.33-.83,3.92-.99,3.24-1.36,8.59-2.47,8.76,2.51.12,3.3,1.5,4.09,4.46,2.77,3.21-1.26,5.47-4.27,8.6-4.67h.05l-.02.02ZM171.53,241.4c-1.88,1.98-3.42,3.81-4.94,5.88-1.24,1.54,1.28-.04,2.56-.63,4.66-2.52,9.13-5.64,12.19-9.97.72-1.29-.11-1.88-1.64-1.44-2.97,1.03-5.74,3.74-8.04,6.04l-.12.13h0Z"/>
          <path class="cls-7" d="M202.6,248.53c3.13,1.1-1.01,4.37-1.45,6.36-.7,2.02,1.02,2.44,3.14,1.51,2.83-1.05,5.43-3.8,8.43-4.63,2.43-.24-.73,2.7-1.49,3.13-3.82,2.4-9.19,6.39-13.69,3.96-1.23-.71-2.06-2.12-3.63-1.73-3.02.83-8.9,5.43-11.22,1.21-.4-1.1,0-2.35.6-3.33,1.97-3.1,6.44-5.72,10.54-6.63,3.08-.47,5.78-.46,8.67.11l.11.03ZM186.96,257.29c.81,1.48,9.23-4.13,10.38-5.07.93-.75.5-1.47-.47-1.65-2.93-.7-10.2,4.26-9.94,6.65l.02.06h0Z"/>
          <path class="cls-7" d="M214.85,248.85c.78.75,1.56.94,2.6.47,1.36-.51,3.09-1.47,4.62-1.55,1.97-.31,4.03,1.5,2.77,3.22-1.16,1.6-2.85.03-4.24-.15-.55-.03-1.24.22-2.13.73-1.64.95-3.33,2.22-4.78,3.52-1.41,1.1-5.91,7.28-6.7,4.08.02-2.27,1.78-4.5,2.81-6.51,1.07-1.81,2.94-5.14,4.97-3.85l.06.05h0Z"/>
          <path class="cls-7" d="M231.13,249.1c.67,1.21.85,3.42,2.29,3.44,1.41.17,4.18-1.51,5.95-1.68.54-.08,2.19-.28,1.79.62-.75,1.02-2.26,1.62-3.43,2.22-3.86,1.87-6.93,2.69-8.13,6.8-1.08,3.58-3.01,7.95-5.5,11.18-2.98,3.84-6.37,6.93-10.45,7.33-2.29.11-4.38-1.49-4.39-3.53-.02-1.49.76-2.79,1.52-4.06,3.27-5.53,9.28-9.6,14.08-13.28,2.71-2.09,2.29-6.26,3.71-9.11.64-1.11,1.87-1.28,2.53-.04l.05.09h-.02ZM217.53,268.15c-1.69,2.12-3.93,4.93-4.13,7.43.23,2.06,2.26.98,3.76-.46,2.32-2.17,4.48-5.14,6.05-7.98,1.5-2.7,4.06-8.63-.26-4.46-1.77,1.62-3.64,3.4-5.29,5.31l-.13.16h0ZM234.46,241.67c-.27,2.05-4.04,1.56-4.85.13-.4-.74.63-1.88,2.16-1.96,1.11-.09,2.52.56,2.69,1.73v.09h0Z"/>
          <path class="cls-7" d="M252.82,248.53c3.13,1.1-1.01,4.37-1.45,6.36-.7,2.02,1.02,2.44,3.14,1.51,2.83-1.05,5.43-3.8,8.43-4.63,2.43-.24-.73,2.7-1.49,3.13-3.82,2.4-9.2,6.39-13.69,3.96-1.23-.71-2.06-2.12-3.63-1.73-3.02.83-8.9,5.43-11.22,1.21-.4-1.1,0-2.35.6-3.33,1.97-3.1,6.44-5.72,10.54-6.63,3.08-.47,5.78-.46,8.67.11l.11.03ZM237.18,257.29c.81,1.48,9.23-4.13,10.38-5.07.93-.75.5-1.47-.47-1.65-2.93-.7-10.2,4.26-9.94,6.65l.02.06h0Z"/>
          <path class="cls-7" d="M281.33,257.4c1.42-.24,3.31-.35,1.39,1.27-1.8,1.47-5.76,2.45-7.94.79-1.52-1.06-1.34-3.28-1.78-4.83-1.02-2.73-4.77-.18-6.4.77-2.05,1.25-3.96,3.41-5.63,4.41-9.32,3.83,2.89-14.07,6.32-17.67,4.24-4.68,9.14-9.3,14.46-9.86,5.43.19,4.33,4.22,1.04,7.7-2.53,2.85-5.74,5.03-8.99,6.94-2.37,1.41-4.61,2.32-6.64,3.79-1.31.89-3.7,3.17.05,1.64,2.74-1.13,6.08-2.73,8.78-1.53,3.27,1.73-.26,7.64,5.22,6.61l.12-.02v-.02ZM272.39,241.4c-1.88,1.98-3.42,3.81-4.94,5.88-1.24,1.54,1.28-.04,2.56-.63,4.66-2.52,9.12-5.64,12.19-9.97.72-1.28-.11-1.88-1.64-1.44-2.97,1.03-5.74,3.74-8.04,6.04l-.12.13h0Z"/>
        </g>
      </g>
      <path class="cls-2" d="M127.05,299.68c.38,1.26,1.28,2.13,3.33,2.13s2.87-.81,2.87-1.8c0-1.05-.58-1.7-3.3-2.16-3.15-.54-3.9-1.55-3.9-3,0-1.88,1.74-2.93,4.03-2.93,3.41,0,4.2,1.81,4.33,2.89h-1.49c-.23-.73-.66-1.7-2.88-1.7-1.51,0-2.48.53-2.48,1.58,0,.87.43,1.42,2.82,1.83,3.78.66,4.38,1.84,4.38,3.33,0,1.7-1.33,3.15-4.49,3.15-2.92,0-4.4-1.36-4.76-3.33h1.52Z"/>
      <path class="cls-2" d="M140.48,292.14h4.94c2.6,0,3.79,1.36,3.79,3.13,0,2.08-1.41,3.25-3.75,3.25h-3.48v4.25h-1.49v-10.64h0ZM141.96,297.25h3.28c1.45,0,2.45-.42,2.45-1.96,0-1.2-.8-1.88-2.45-1.88h-3.28v3.85Z"/>
      <path class="cls-2" d="M165.21,297.43c0,3-2.01,5.57-5.52,5.57s-5.5-2.46-5.5-5.59c0-2.95,2.17-5.5,5.53-5.5s5.48,2.55,5.48,5.51ZM155.76,297.38c0,2.28,1.38,4.36,3.97,4.36s3.91-1.98,3.91-4.28-1.38-4.28-4-4.28c-2.45,0-3.89,1.95-3.89,4.21h0Z"/>
      <path class="cls-2" d="M172.43,298.19v4.58h-1.46v-10.64h5.01c2.14,0,3.59.99,3.59,2.88,0,1.29-.64,2.2-1.92,2.55.69.2,1.64.72,1.64,2.59v.47c0,.81,0,1.71.12,2.16h-1.51c-.16-.47-.13-1.27-.13-2.17v-.35c0-1.57-.61-2.07-2.45-2.07h-2.88ZM172.43,296.96h3.16c1.64,0,2.45-.58,2.45-1.86,0-1.15-.81-1.73-2.39-1.73h-3.22v3.59Z"/>
      <path class="cls-2" d="M188.19,293.42h-4v-1.27h9.48v1.27h-3.99v9.36h-1.49v-9.36Z"/>
      <path class="cls-2" d="M199.36,299.68c.38,1.26,1.28,2.13,3.33,2.13s2.87-.81,2.87-1.8c0-1.05-.58-1.7-3.3-2.16-3.15-.54-3.9-1.55-3.9-3,0-1.88,1.74-2.93,4.03-2.93,3.41,0,4.2,1.81,4.33,2.89h-1.49c-.23-.73-.66-1.7-2.88-1.7-1.51,0-2.48.53-2.48,1.58,0,.87.43,1.42,2.82,1.83,3.78.66,4.38,1.84,4.38,3.33,0,1.7-1.33,3.15-4.49,3.15-2.92,0-4.4-1.36-4.76-3.33h1.52Z"/>
      <path class="cls-2" d="M230.17,299.66c-.59,1.83-1.9,3.34-4.9,3.34-3.48,0-5.38-2.47-5.38-5.53s2.1-5.56,5.45-5.56c3.02,0,4.46,1.65,4.87,3.4h-1.52c-.46-1.12-1.3-2.16-3.37-2.16-2.41,0-3.87,1.81-3.87,4.27s1.45,4.31,3.89,4.31c1.97,0,2.76-.85,3.33-2.08h1.5Z"/>
      <path class="cls-2" d="M235.72,292.14h1.48v9.36h6.32l-.23,1.27h-7.58v-10.64h0Z"/>
      <path class="cls-2" d="M249.71,292.14v6.04c0,2.8,1.62,3.56,3.2,3.56,1.94,0,3.09-.93,3.09-3.56v-6.04h1.48v6.02c0,3.46-1.77,4.84-4.61,4.84s-4.63-1.41-4.63-4.71v-6.14h1.48Z"/>
      <path class="cls-2" d="M263.84,292.14h5.05c2.26,0,3.43,1.02,3.43,2.66,0,1.33-.89,2.02-1.69,2.26.95.27,2.13.96,2.13,2.59,0,2.13-1.73,3.11-3.76,3.11h-5.14v-10.64h-.02ZM268.52,296.53c1.52,0,2.25-.55,2.25-1.58,0-1.23-.96-1.58-2.18-1.58h-3.26v3.18h3.2ZM265.32,301.56h3.33c1.23,0,2.53-.39,2.53-1.9,0-1.28-.99-1.92-2.67-1.92h-3.19v3.82Z"/>
    </g>
    <g>
      <path class="cls-2" d="M2.82,122.26c.14,2.87,2.08,4.98,5.07,4.98,2.31,0,3.6-.95,4.39-2.41h2.77c-.79,2.22-2.86,4.69-7.32,4.69-5.3,0-7.73-3.92-7.73-7.89,0-4.51,2.99-7.95,7.67-7.95,5.62,0,7.61,4.19,7.61,7.84,0,.27,0,.45-.03.75H2.82v-.02ZM12.4,120.25c-.14-1.78-1.08-4.36-4.74-4.36-3.05,0-4.51,1.92-4.77,4.36h9.52Z"/>
      <path class="cls-2" d="M27.29,124.57c.52,1.78,2.02,2.81,4.71,2.81,2.83,0,3.83-1.02,3.83-2.37,0-1.25-.72-2.11-4.51-2.55-5.21-.66-6.18-2.5-6.18-4.36s1.52-4.42,6.27-4.42c5.11,0,6.55,2.67,6.73,4.48h-2.8c-.2-.89-.82-2.37-4.07-2.37-2.76,0-3.34,1.19-3.34,2.05,0,1.12.71,1.81,4.1,2.25,5.56.77,6.58,2.5,6.58,4.72,0,2.7-2.02,4.72-6.79,4.72-4.33,0-6.85-1.84-7.35-4.95h2.82Z"/>
      <path class="cls-2" d="M46.89,114.11h2.96v-4.84h2.77v4.84h3.87v2.22h-3.87v8.22c0,1.72.45,2.5,2.05,2.5.42,0,1.03-.03,1.46-.16v2.08c-.68.23-1.46.3-2.31.3-3.08,0-3.97-1.39-3.97-4.36v-8.58h-2.96v-2.22Z"/>
      <path class="cls-2" d="M66.32,129.12v-4.87h3.1v4.87h-3.1Z"/>
    </g>
    <g>
      <path class="cls-2" d="M346.15,132.17v-16.56c-1.14.83-3.57,1.72-4.56,1.87v-2.25c2.22-.66,4.22-2.02,5.24-3.12h2.11v20.06h-2.79Z"/>
      <path class="cls-2" d="M363.28,127.52c.59,1.58,1.72,2.76,4.19,2.76,4.07,0,4.82-4.25,5.04-8.08-.94,1.61-2.69,2.67-5.41,2.67-4.42,0-6.9-2.76-6.9-6.33,0-3.92,2.83-6.83,7.32-6.83,5.04,0,7.78,3.3,7.78,9.4s-1.79,11.42-7.87,11.42c-4.59,0-6.44-2.73-6.96-5.05h2.83l-.02.02ZM363.06,118.38c0,2.64,1.76,4.22,4.51,4.22s4.51-1.61,4.51-3.8c0-1.92-1-4.75-4.65-4.75-2.86,0-4.36,1.91-4.36,4.33h-.02Z"/>
      <path class="cls-2" d="M398.46,112.12v2.28c-3.71,4.81-6.99,11.67-8.32,17.78h-3.05c1.08-5.9,4.77-13.26,8.32-17.62h-11.41v-2.44h14.46Z"/>
      <path class="cls-2" d="M422.58,112.12v2.28c-3.71,4.81-6.99,11.67-8.32,17.78h-3.05c1.08-5.9,4.77-13.26,8.32-17.62h-11.41v-2.44h14.46Z"/>
    </g>
  </g>
</svg>